<svg class="main-svg" xmlns="http://www.w3.org/2000/svg" xmlns:xlink="http://www.w3.org/1999/xlink" width="700" height="700" style="" viewBox="0 0 700 700"><rect x="0" y="0" width="700" height="700" style="fill: rgb(255, 255, 255); fill-opacity: 1;"/><defs id="defs-04b501"><g class="clips"><clipPath id="clip04b501geo"><rect x="1.1368683772161603e-13" y="188.77768416043455" width="521" height="342.1862493532244"/></clipPath></g><g class="gradients"/><g class="patterns"/></defs><g class="bglayer"/><g class="layer-below"><g class="imagelayer"/><g class="shapelayer"/></g><g class="cartesianlayer"/><g class="polarlayer"/><g class="smithlayer"/><g class="ternarylayer"/><g class="geolayer"><g class="geo geo" clip-path="url(#clip04b501geo)"><g class="layer bg"><rect x="1.1368683772161603e-13" y="188.77768416043455" width="521" height="342.1862493532244" style="pointer-events: all; fill: rgb(255, 255, 255); fill-opacity: 1;"/></g><g class="layer land"><path d="M1.1368683772161603e-13,188.77768416043455L521.0000000000001,188.77768416043455L521.0000000000001,530.963933513659L1.1368683772161603e-13,530.963933513659Z" style="stroke: none; fill: rgb(229, 236, 246); fill-opacity: 1;"/></g><g class="layer lakes"><path d="M108.71008574928533,416.87987395880646L107.99208860759427,421.38667381406776L105.83809718252337,424.2021985119427L104.64143527970612,424.0145261626467L86.69150673744366,421.38667381406776L65.6302572478561,423.63916891135796L51.74897917517353,427.76717852206184L42.17568395263345,439.7644443277886L32.602388730093935,451.7446648655987L29.96973254389502,451.93172094064266L32.602388730093935,436.76672862993837L52.46697631686368,412.9344423283892L78.31487341772151,401.8397376292787L102.96610861576119,411.61888695807556ZM412.66220906492447,246.0971715436608L411.46554716210653,248.01416508649254L407.8755614536544,249.3557960334465L397.34493670886025,248.78083800929653L394.47294814209886,248.5891764460348L393.994283380972,248.5891764460348L382.9849938750508,248.20583998492475L361.68441200489997,234.96982716313323L355.46177011024884,224.9808174212494L354.50444058799485,223.44297230534448L347.0851367905266,207.4708700369174L348.99979583503455,205.92975211329303L359.53042057982805,213.6324581687677L374.60836055532843,222.481673410025L389.6863005308288,230.74518370431815L403.5675786035114,239.9598013237037L410.2688852592895,244.56325642649972ZM348.52113107390767,223.44297230534448L322.4339015924868,225.74963242714603L329.3745406288281,221.1356665872445L332.9645263372803,218.44299327174303L332.725193956717,217.67349639803524L332.4858615761532,214.20987073778178L334.87918538178826,210.55224051057212L344.93114536545545,216.32670390815565L348.04246631278056,222.67394215747936Z" style="stroke: none; fill: rgb(255, 255, 255); fill-opacity: 1;"/></g><g class="layer countries"><path d="M521.0000000000001,350.22865167870884L491.40256227031404,351.257861070505L492.838556553695,342.35555017088245L483.98325847284576,329.64857892602777L478.2392813393216,330.5975293093452L469.62331563903626,339.8915316628463L399.49892813393205,319.202984708596L402.6102490812573,308.74426762035L391.36162719477295,286.45185679550013L394.7122805226621,249.73907916443113L422.714169048591,240.3435206013155L437.5527766435274,245.71371946164163L451.43405471621065,263.1428090535801L460.768017558187,282.6351904031935L489.2485708452428,252.8047046157708L521.0000000000001,253.61326830509464L521.0000000000001,350.22865167870884ZM399.49892813393205,319.202984708596L469.62331563903626,339.8915316628463L478.2392813393216,330.5975293093452L483.98325847284576,329.64857892602777L492.838556553695,342.35555017088245L491.40256227031404,351.257861070505L488.2912413229889,364.31004871367713L440.18543282972644,434.5177420711816L408.1148938342176,438.07836040369693L383.70299101674163,416.504198299941L366.47105961617,428.70508035711464L345.1704777460185,463.8947019801981L339.90516537362146,495.0311805358633L317.8865863617798,485.90718538464716L277.9180788076766,431.70566459810107L277.9180788076766,415.37707063437574L275.28542262147835,411.80683604364276L261.64347692935905,418.0068002769376L242.73621886484239,448.3769465905234L240.82155982033441,464.6418263160167L214.9736627194775,493.5422190461368L161.36320947325407,498.1943563106224L133.60065332788906,504.8889572088492L126.89934667211094,495.21728234748934L117.32605144957154,476.95985998170363L103.20544099632502,417.6311749451306L71.1349020008164,413.12236200694315L42.65434871376044,427.9547672454346L39.303695385871265,435.4548927345031L45.52633728052251,444.6334606831406L34.51704777460202,459.036783558975L13.934463046141445,462.213430777294L12.01980400163336,453.0539703769391L33.55971825234792,389.2228660612964L87.10893669125596,324.44250460855164L141.49862188648422,259.50680073012154L164.95319518170686,260.08101353119673L184.8177827684766,236.31357849207234L191.2797570436909,240.91906608820682L262.60080645161304,238.42474587153538L283.42272356063665,227.09488622812933L304.48397305022434,208.43392222118473L377.71968150265354,232.28166796092046L393.036953858718,243.4126331584839L394.7122805226621,249.73907916443113L391.36162719477295,286.45185679550013L385.1389853001226,319.202984708596ZM521.0000000000001,253.61326830509464L489.2485708452428,252.8047046157708L460.768017558187,282.6351904031935L451.43405471621065,263.1428090535801L437.5527766435274,245.71371946164163L422.714169048591,240.3435206013155L394.7122805226621,249.73907916443113L393.036953858718,243.4126331584839L377.71968150265354,232.28166796092046L304.48397305022434,208.43392222118473L283.42272356063665,227.09488622812933L262.60080645161304,238.42474587153538L191.2797570436909,240.91906608820682L184.8177827684766,236.31357849207234L178.35580849326243,217.09632657575094L180.70558447456477,188.77768416043455L521.0000000000001,188.77768416043455ZM180.70558447456477,188.77768416043455L178.35580849326243,217.09632657575094L184.8177827684766,236.31357849207234L164.95319518170686,260.08101353119673L141.49862188648422,259.50680073012154L87.10893669125596,324.44250460855164L33.55971825234792,389.2228660612964L12.01980400163336,453.0539703769391L13.934463046141445,462.213430777294L34.51704777460202,459.036783558975L45.52633728052251,444.6334606831406L39.303695385871265,435.4548927345031L42.65434871376044,427.9547672454346L71.1349020008164,413.12236200694315L103.20544099632502,417.6311749451306L117.32605144957154,476.95985998170363L126.89934667211094,495.21728234748934L108.71008574928533,507.86264207359636L112.20395625842201,530.963933513659L1.1368683772161603e-13,530.963933513659L1.1368683772161603e-13,188.77768416043455ZM112.20395625842201,530.963933513659L108.71008574928533,507.86264207359636L126.89934667211094,495.21728234748934L133.60065332788906,504.8889572088492L161.36320947325407,498.1943563106224L214.9736627194775,493.5422190461368L240.82155982033441,464.6418263160167L242.73621886484239,448.3769465905234L261.64347692935905,418.0068002769376L275.28542262147835,411.80683604364276L277.9180788076766,415.37707063437574L277.9180788076766,431.70566459810107L317.8865863617798,485.90718538464716L339.90516537362146,495.0311805358633L345.1704777460185,463.8947019801981L366.47105961617,428.70508035711464L383.70299101674163,416.504198299941L408.1148938342176,438.07836040369693L440.18543282972644,434.5177420711816L488.2912413229889,364.31004871367713L491.40256227031404,351.257861070505L491.40256227031404,351.257861070505L521.0000000000001,350.22865167870884L521.0000000000001,530.963933513659ZM391.36162719477295,286.45185679550013L402.6102490812573,308.74426762035L399.49892813393205,319.202984708596L385.1389853001226,319.202984708596Z" style="fill: none; stroke-miterlimit: 2; stroke: rgb(68, 68, 68); stroke-opacity: 1; stroke-width: 1px;"/></g><g class="layer backplot"><g class="choroplethlayer"/></g><g class="layer frontplot"><g class="scatterlayer"><g class="trace scattergeo" style="opacity: 1;"><path class="point" d="M4.5,0A4.5,4.5 0 1,1 0,-4.5A4.5,4.5 0 0,1 4.5,0Z" transform="translate(285.4969375255208,269.5851946043322)" style="opacity: 0.9; stroke-width: 0px; fill: rgb(99, 110, 250); fill-opacity: 1;"/><path class="point" d="M4.5,0A4.5,4.5 0 1,1 0,-4.5A4.5,4.5 0 0,1 4.5,0Z" transform="translate(83.10683952633735,403.1584045512009)" style="opacity: 0.9; stroke-width: 0px; fill: rgb(99, 110, 250); fill-opacity: 1;"/><path class="point" d="M4.5,0A4.5,4.5 0 1,1 0,-4.5A4.5,4.5 0 0,1 4.5,0Z" transform="translate(375.0285218456514,262.26191366267267)" style="opacity: 0.9; stroke-width: 0px; fill: rgb(99, 110, 250); fill-opacity: 1;"/><path class="point" d="M4.5,0A4.5,4.5 0 1,1 0,-4.5A4.5,4.5 0 0,1 4.5,0Z" transform="translate(286.9222948142101,321.2767657344966)" style="opacity: 0.9; stroke-width: 0px; fill: rgb(99, 110, 250); fill-opacity: 1;"/><g transform="translate(0,-10.125)"><text x="0" y="0" text-anchor="middle" transform="translate(285.4969375255208,269.5851946043322)" style="font-family: Inter; font-size: 14px; fill: rgb(42, 63, 95); fill-opacity: 1; white-space: pre;">PHZH</text></g><g transform="translate(0,-10.125)"><text x="0" y="0" text-anchor="middle" transform="translate(83.10683952633735,403.1584045512009)" style="font-family: Inter; font-size: 14px; fill: rgb(42, 63, 95); fill-opacity: 1; white-space: pre;">HEP Vaud</text></g><g transform="translate(0,-10.125)"><text x="0" y="0" text-anchor="middle" transform="translate(375.0285218456514,262.26191366267267)" style="font-family: Inter; font-size: 14px; fill: rgb(42, 63, 95); fill-opacity: 1; white-space: pre;">PHSG</text></g><g transform="translate(0,-10.125)"><text x="0" y="0" text-anchor="middle" transform="translate(286.9222948142101,321.2767657344966)" style="font-family: Inter; font-size: 14px; fill: rgb(42, 63, 95); fill-opacity: 1; white-space: pre;">PHSZ</text></g></g><g class="trace scattergeo" style="opacity: 1;"><path class="point" d="M4.5,0A4.5,4.5 0 1,1 0,-4.5A4.5,4.5 0 0,1 4.5,0Z" transform="translate(166.3200489995919,336.85735240243866)" style="opacity: 0.9; stroke-width: 0px; fill: rgb(239, 85, 59); fill-opacity: 1;"/><path class="point" d="M4.5,0A4.5,4.5 0 1,1 0,-4.5A4.5,4.5 0 0,1 4.5,0Z" transform="translate(305.6114944875461,250.38316773083443)" style="opacity: 0.9; stroke-width: 0px; fill: rgb(239, 85, 59); fill-opacity: 1;"/><path class="point" d="M4.5,0A4.5,4.5 0 1,1 0,-4.5A4.5,4.5 0 0,1 4.5,0Z" transform="translate(261.48924050632934,320.90209869565024)" style="opacity: 0.9; stroke-width: 0px; fill: rgb(239, 85, 59); fill-opacity: 1;"/><path class="point" d="M4.5,0A4.5,4.5 0 1,1 0,-4.5A4.5,4.5 0 0,1 4.5,0Z" transform="translate(251.39473254389554,253.84628590990724)" style="opacity: 0.9; stroke-width: 0px; fill: rgb(239, 85, 59); fill-opacity: 1;"/><path class="point" d="M4.5,0A4.5,4.5 0 1,1 0,-4.5A4.5,4.5 0 0,1 4.5,0Z" transform="translate(158.8741527153942,271.51708378275)" style="opacity: 0.9; stroke-width: 0px; fill: rgb(239, 85, 59); fill-opacity: 1;"/><g transform="translate(0,-10.125)"><text x="0" y="0" text-anchor="middle" transform="translate(166.3200489995919,336.85735240243866)" style="font-family: Inter; font-size: 14px; fill: rgb(42, 63, 95); fill-opacity: 1; white-space: pre;">BFH</text></g><g transform="translate(0,-10.125)"><text x="0" y="0" text-anchor="middle" transform="translate(305.6114944875461,250.38316773083443)" style="font-family: Inter; font-size: 14px; fill: rgb(42, 63, 95); fill-opacity: 1; white-space: pre;">ZHAW</text></g><g transform="translate(0,-10.125)"><text x="0" y="0" text-anchor="middle" transform="translate(261.48924050632934,320.90209869565024)" style="font-family: Inter; font-size: 14px; fill: rgb(42, 63, 95); fill-opacity: 1; white-space: pre;">HSLU</text></g><g transform="translate(0,-10.125)"><text x="0" y="0" text-anchor="middle" transform="translate(251.39473254389554,253.84628590990724)" style="font-family: Inter; font-size: 14px; fill: rgb(42, 63, 95); fill-opacity: 1; white-space: pre;">FHNW</text></g><g transform="translate(0,-10.125)"><text x="0" y="0" text-anchor="middle" transform="translate(158.8741527153942,271.51708378275)" style="font-family: Inter; font-size: 14px; fill: rgb(42, 63, 95); fill-opacity: 1; white-space: pre;">HES-SO</text></g></g><g class="trace scattergeo" style="opacity: 1;"><path class="point" d="M4.5,0A4.5,4.5 0 1,1 0,-4.5A4.5,4.5 0 0,1 4.5,0Z" transform="translate(286.87974683544314,269.742275593444)" style="opacity: 0.9; stroke-width: 0px; fill: rgb(0, 204, 150); fill-opacity: 1;"/><path class="point" d="M4.5,0A4.5,4.5 0 1,1 0,-4.5A4.5,4.5 0 0,1 4.5,0Z" transform="translate(76.13960800326674,403.40573963739644)" style="opacity: 0.9; stroke-width: 0px; fill: rgb(0, 204, 150); fill-opacity: 1;"/><path class="point" d="M4.5,0A4.5,4.5 0 1,1 0,-4.5A4.5,4.5 0 0,1 4.5,0Z" transform="translate(30.98556553695414,452.83476605008127)" style="opacity: 0.9; stroke-width: 0px; fill: rgb(0, 204, 150); fill-opacity: 1;"/><path class="point" d="M4.5,0A4.5,4.5 0 1,1 0,-4.5A4.5,4.5 0 0,1 4.5,0Z" transform="translate(77.88407513270738,402.7100911420721)" style="opacity: 0.9; stroke-width: 0px; fill: rgb(0, 204, 150); fill-opacity: 1;"/><g transform="translate(0,-10.125)"><text x="0" y="0" text-anchor="middle" transform="translate(286.87974683544314,269.742275593444)" style="font-family: Inter; font-size: 14px; fill: rgb(42, 63, 95); fill-opacity: 1; white-space: pre;">ETH</text></g><g transform="translate(0,-10.125)"><text x="0" y="0" text-anchor="middle" transform="translate(76.13960800326674,403.40573963739644)" style="font-family: Inter; font-size: 14px; fill: rgb(42, 63, 95); fill-opacity: 1; white-space: pre;">EPFL</text></g><g transform="translate(0,-10.125)"><text x="0" y="0" text-anchor="middle" transform="translate(30.98556553695414,452.83476605008127)" style="font-family: Inter; font-size: 14px; fill: rgb(42, 63, 95); fill-opacity: 1; white-space: pre;">UNIGE</text></g><g transform="translate(0,-10.125)"><text x="0" y="0" text-anchor="middle" transform="translate(77.88407513270738,402.7100911420721)" style="font-family: Inter; font-size: 14px; fill: rgb(42, 63, 95); fill-opacity: 1; white-space: pre;">UNIL</text></g></g></g></g></g></g><g class="funnelarealayer"/><g class="pielayer"/><g class="iciclelayer"/><g class="treemaplayer"/><g class="sunburstlayer"/><g class="glimages"/><defs id="topdefs-04b501"><g class="clips"/><clipPath id="legend04b501"><rect width="169" height="96" x="0" y="0"/></clipPath></defs><g class="layer-above"><g class="imagelayer"/><g class="shapelayer"/></g><g class="infolayer"><g class="legend" pointer-events="all" transform="translate(531,20)"><rect class="bg" shape-rendering="crispEdges" style="stroke: rgb(68, 68, 68); stroke-opacity: 1; fill: rgb(255, 255, 255); fill-opacity: 1; stroke-width: 0px;" width="169" height="96" x="0" y="0"/><g class="scrollbox" transform="" clip-path="url(#legend04b501)"><text class="legendtitletext" text-anchor="start" x="2" y="22.1" style="font-family: Inter; font-size: 17px; fill: rgb(42, 63, 95); fill-opacity: 1; white-space: pre;">Type</text><g class="groups"><g class="traces" transform="translate(0,37.7)" style="opacity: 1;"><text class="legendtext" text-anchor="start" x="40" y="5.46" style="font-family: Inter; font-size: 14px; fill: rgb(42, 63, 95); fill-opacity: 1; white-space: pre;">Teacher Education</text><g class="layers" style="opacity: 1;"><g class="legendfill"/><g class="legendlines"/><g class="legendsymbols"><g class="legendpoints"><path class="scatterpts" transform="translate(20,0)" d="M4.5,0A4.5,4.5 0 1,1 0,-4.5A4.5,4.5 0 0,1 4.5,0Z" style="opacity: 0.9; stroke-width: 0px; fill: rgb(99, 110, 250); fill-opacity: 1;"/></g></g></g><rect class="legendtoggle" x="0" y="-10.6" width="163.65625" height="21.2" style="fill: rgb(0, 0, 0); fill-opacity: 0;"/></g><g class="traces" transform="translate(0,58.9)" style="opacity: 1;"><text class="legendtext" text-anchor="start" x="40" y="5.46" style="font-family: Inter; font-size: 14px; fill: rgb(42, 63, 95); fill-opacity: 1; white-space: pre;">UAS</text><g class="layers" style="opacity: 1;"><g class="legendfill"/><g class="legendlines"/><g class="legendsymbols"><g class="legendpoints"><path class="scatterpts" transform="translate(20,0)" d="M4.5,0A4.5,4.5 0 1,1 0,-4.5A4.5,4.5 0 0,1 4.5,0Z" style="opacity: 0.9; stroke-width: 0px; fill: rgb(239, 85, 59); fill-opacity: 1;"/></g></g></g><rect class="legendtoggle" x="0" y="-10.6" width="163.65625" height="21.2" style="fill: rgb(0, 0, 0); fill-opacity: 0;"/></g><g class="traces" transform="translate(0,80.1)" style="opacity: 1;"><text class="legendtext" text-anchor="start" x="40" y="5.46" style="font-family: Inter; font-size: 14px; fill: rgb(42, 63, 95); fill-opacity: 1; white-space: pre;">University</text><g class="layers" style="opacity: 1;"><g class="legendfill"/><g class="legendlines"/><g class="legendsymbols"><g class="legendpoints"><path class="scatterpts" transform="translate(20,0)" d="M4.5,0A4.5,4.5 0 1,1 0,-4.5A4.5,4.5 0 0,1 4.5,0Z" style="opacity: 0.9; stroke-width: 0px; fill: rgb(0, 204, 150); fill-opacity: 1;"/></g></g></g><rect class="legendtoggle" x="0" y="-10.6" width="163.65625" height="21.2" style="fill: rgb(0, 0, 0); fill-opacity: 0;"/></g></g></g><rect class="scrollbar" rx="20" ry="3" width="0" height="0" style="fill: rgb(128, 139, 164); fill-opacity: 1;" x="0" y="0"/></g><g class="g-gtitle"><text class="gtitle" x="0" y="10" text-anchor="start" dy="0em" style="opacity: 1; font-family: Inter; font-size: 20px; fill: rgb(42, 63, 95); fill-opacity: 1; white-space: pre;">Institutions (short_name labels)</text></g></g><g class="menulayer"><g class="updatemenu-container" style="cursor: pointer;"><g class="updatemenu-header-group" transform="translate(5,27)"><g class="updatemenu-header" transform="translate(1,1)" style="pointer-events: all;"><rect class="updatemenu-item-rect" rx="2" ry="2" shape-rendering="crispEdges" x="0" y="0" width="164" height="33" style="stroke: rgb(0, 0, 0); stroke-opacity: 0.2; fill: rgb(255, 255, 255); fill-opacity: 1; stroke-width: 1px;"/><text class="updatemenu-item-text" text-anchor="start" data-notex="1" x="12" y="19.5" style="font-family: Inter; font-size: 14px; fill: rgb(42, 63, 95); fill-opacity: 1; white-space: pre;">All types</text></g><text class="updatemenu-header-arrow" text-anchor="end" x="160" y="19.5" style="font-family: Inter; font-size: 14px; fill: rgb(42, 63, 95); fill-opacity: 1;">▼</text></g><g class="updatemenu-header-group" transform="translate(125,27)"><g class="updatemenu-header" transform="translate(1,1)" style="pointer-events: all;"><rect class="updatemenu-item-rect" rx="2" ry="2" shape-rendering="crispEdges" x="0" y="0" width="106" height="33" style="stroke: rgb(0, 0, 0); stroke-opacity: 0.2; fill: rgb(255, 255, 255); fill-opacity: 1; stroke-width: 1px;"/><text class="updatemenu-item-text" text-anchor="start" data-notex="1" x="12" y="19.5" style="font-family: Inter; font-size: 14px; fill: rgb(42, 63, 95); fill-opacity: 1; white-space: pre;">Labels on</text></g><text class="updatemenu-header-arrow" text-anchor="end" x="102" y="19.5" style="font-family: Inter; font-size: 14px; fill: rgb(42, 63, 95); fill-opacity: 1;">▼</text></g><g class="updatemenu-dropdown-button-group" updatemenu-active-index="-1" style="pointer-events: all;"><rect class="scrollbox-bg" opacity="0" x="0" y="0" width="0" height="0" style="pointer-events: all;"/></g></g></g></svg>